<svg viewBox="0 0 27 22" fill="none" xmlns="http://www.w3.org/2000/svg">
  <path fill-rule="evenodd" clip-rule="evenodd" d="M18.6965 0C15.7067 0 13.2884 2.47867 13.2884 5.55867C13.2884 5.96933 13.3471 6.39467 13.4203 6.82C9.0089 6.6 4.97852 4.42933 2.28183 1.012C1.79818 1.87733 1.53438 2.80133 1.53438 3.81333C1.53438 5.72 2.47236 7.42133 3.95261 8.43333C3.07325 8.404 2.25252 8.16933 1.50506 7.72933V7.80267C1.50506 10.4867 3.35171 12.716 5.84322 13.2587C5.37423 13.376 4.90524 13.4347 4.4216 13.4347C4.09916 13.4347 3.76208 13.4053 3.39568 13.3613C4.08451 15.576 6.10703 17.16 8.45198 17.204C6.48808 18.788 4.24572 19.58 1.73956 19.58C1.25591 19.58 0.816235 19.5653 0.435181 19.5067C2.94135 21.1787 5.71132 22 8.73044 22C10.665 22 12.453 21.692 14.1385 21.0613C17.5093 19.8147 19.825 17.6733 21.5544 14.9307C23.2838 12.2027 24.1192 9.18133 24.1192 6.204C24.1192 5.88133 24.1192 5.632 24.1045 5.48533C25.1597 4.69333 26.0684 3.72533 26.8159 2.61067C25.7753 3.08 24.7347 3.35867 23.7088 3.476C24.8813 2.74267 25.658 1.73067 26.0831 0.410667C25.0132 1.07067 23.87 1.51067 22.6536 1.76C21.5837 0.586667 20.25 0 18.6965 0Z" fill="currentColor"/>
</svg>