<svg viewBox="0 0 23 24" fill="none" xmlns="http://www.w3.org/2000/svg">
  <path fill-rule="evenodd" clip-rule="evenodd" d="M11.4352 0C5.36252 0 0.435181 5.25583 0.435181 11.7333C0.435181 18.2108 5.36252 23.4667 11.4352 23.4667C17.4959 23.4667 22.4352 18.2108 22.4352 11.7333C22.4352 5.25583 17.4959 0 11.4352 0ZM18.7009 5.40853C20.0133 7.1138 20.8007 9.28996 20.8246 11.6443C20.5144 11.5806 17.4124 10.9062 14.2866 11.3261C14.215 11.1607 14.1553 10.9825 14.0838 10.8043C13.8929 10.3208 13.6781 9.82444 13.4634 9.35358C16.9233 7.85192 18.4981 5.68851 18.7009 5.40853ZM11.4352 1.73073C13.8213 1.73073 16.0046 2.68517 17.6629 4.25047C17.4959 4.50499 16.0762 6.52843 12.7356 7.86464C11.1966 4.84859 9.49049 2.37975 9.22803 1.99798C9.93192 1.81981 10.6716 1.73073 11.4352 1.73073ZM7.43844 2.67245C7.68898 3.02877 9.35926 5.51035 10.9222 8.46276C6.53171 9.7099 2.65428 9.68446 2.2367 9.68446C2.84515 6.57933 4.81371 3.99595 7.43844 2.67245ZM2.03388 11.7461C2.03388 11.6443 2.03388 11.5425 2.03388 11.4406C2.43952 11.4534 6.99701 11.517 11.6857 10.0153C11.9601 10.5753 12.2107 11.1479 12.4493 11.7206C12.33 11.7588 12.1987 11.797 12.0794 11.8351C7.23562 13.5023 4.65861 18.0581 4.44387 18.4399C2.95253 16.671 2.03388 14.3167 2.03388 11.7461ZM11.4352 21.7614C9.26382 21.7614 7.25947 20.9724 5.6727 19.6489C5.83974 19.2798 7.74864 15.3602 13.0458 13.3877C13.0697 13.375 13.0816 13.375 13.1055 13.3622C14.4298 17.0146 14.9666 20.0816 15.1098 20.9597C13.9764 21.4814 12.7356 21.7614 11.4352 21.7614ZM16.6727 20.0434C16.5773 19.4325 16.0762 16.5056 14.8473 12.9041C17.7942 12.4078 20.3712 13.2223 20.6933 13.3368C20.2877 16.1238 18.7844 18.529 16.6727 20.0434Z" fill="currentColor"/>
</svg>