<svg height="30px" viewBox="0 0 533.77 81.71" xmlns="http://www.w3.org/2000/svg">
                <path d="M15.1 47a7.55 7.55 0 11-7.55-7.55h7.55zM18.87 47A7.55 7.55 0 1134 47v18.85a7.55 7.55 0 01-15.09 0z" fill="#e01e5a"/>
                <path d="M26.42 16.81A7.55 7.55 0 1134 9.26v7.55zM26.42 20.58a7.55 7.55 0 010 15.09H7.55a7.55 7.55 0 010-15.09z" fill="#36c5f0"/>
                <path d="M56.59 28.13a7.55 7.55 0 117.55 7.54h-7.55zM52.82 28.13a7.55 7.55 0 01-15.09 0V9.26a7.55 7.55 0 0115.09 0z" fill="#2eb67d"/>
                <path d="M45.28 58.3a7.55 7.55 0 11-7.55 7.55V58.3zM45.28 54.53a7.55 7.55 0 110-15.09h18.86a7.55 7.55 0 010 15.09z" fill="#ecb22e"/>
                <path d="M15.09 47a7.55 7.55 0 11-7.55-7.55h7.55zM18.86 47A7.55 7.55 0 1134 47v18.85a7.55 7.55 0 01-15.09 0z" fill="#e01e5a"/>
                <path d="M26.41 16.81A7.55 7.55 0 1134 9.26v7.55zM26.41 20.58a7.55 7.55 0 010 15.09H7.54a7.55 7.55 0 010-15.09z" fill="#36c5f0"/>
                <path d="M56.58 28.13a7.55 7.55 0 117.55 7.54h-7.55zM52.81 28.13a7.55 7.55 0 01-15.09 0V9.26a7.55 7.55 0 0115.09 0z" fill="#2eb67d"/>
                <path d="M45.27 58.3a7.55 7.55 0 11-7.55 7.55V58.3zM45.27 54.53a7.55 7.55 0 110-15.09h18.86a7.55 7.55 0 010 15.09z" fill="#ecb22e"/>
                <path fill="currentColor" d="M90.54 58.15L94.06 50a23.6 23.6 0 0013.88 4.35c3.68 0 6-1.43 6-3.6-.09-6-22.17-1.34-22.34-16.48-.08-7.7 6.78-13.64 16.48-13.64 5.77 0 11.55 1.42 15.65 4.69l-3.29 8.37a24.71 24.71 0 00-12.86-4.11c-3 0-5 1.43-5 3.27.08 5.94 22.34 2.67 22.59 17.15 0 7.86-6.69 13.38-16.23 13.38-7 0-13.47-1.67-18.41-5.18M226.23 47a10.21 10.21 0 110-10l9.77-5.48a21.38 21.38 0 100 20.87zM130.1 2.79h12.22V62.5H130.1zM240.75 2.79V62.5h12.22V44.61l14.47 17.89h15.62l-18.41-21.26 17.07-19.82h-14.95l-13.8 16.48V2.79zM178.53 47.06a11.23 11.23 0 01-9.53 5.1 10.21 10.21 0 110-20.41 11.19 11.19 0 019.53 5.25zm0-25.64v4.85c-2-3.35-6.94-5.69-12.13-5.69-10.71 0-19.16 9.46-19.16 21.33s8.45 21.42 19.16 21.42c5.19 0 10.13-2.34 12.13-5.69v4.86h12.22V21.42z"/>
                <path fill="currentColor" d="M90.53 58.15L94.05 50a23.6 23.6 0 0013.88 4.35c3.68 0 6-1.43 6-3.6-.09-6-22.17-1.34-22.34-16.48-.08-7.7 6.78-13.64 16.48-13.64 5.77 0 11.55 1.42 15.65 4.69l-3.29 8.37a24.71 24.71 0 00-12.86-4.11c-3 0-5 1.43-5 3.27.08 5.94 22.34 2.67 22.59 17.15 0 7.86-6.7 13.38-16.23 13.38-7 0-13.47-1.67-18.41-5.18M226.22 47a10.21 10.21 0 110-10l9.78-5.48a21.38 21.38 0 100 20.87zM130.09 2.79h12.22V62.5h-12.22zM240.74 2.79V62.5h12.22V44.61l14.47 17.89h15.62l-18.41-21.26 17.07-19.82h-14.95l-13.8 16.48V2.79zM178.52 47.06a11.23 11.23 0 01-9.53 5.1 10.21 10.21 0 110-20.41 11.19 11.19 0 019.53 5.25zm0-25.64v4.85c-2-3.35-6.94-5.69-12.13-5.69-10.71 0-19.16 9.46-19.16 21.33s8.45 21.42 19.16 21.42c5.19 0 10.12-2.34 12.13-5.69v4.86h12.22V21.42z"/>
                <path fill="currentColor" d="M337.26 3.36v59.11h-11.91v-4.89c-2 3.37-7 5.74-12.24 5.74-10.81 0-19.34-9.63-19.34-21.62s8.53-21.53 19.34-21.53c5.15 0 10.21 2.36 12.24 5.74V3.36zm-11.91 43.49V36.72a11.3 11.3 0 00-9.63-5.32 10.08 10.08 0 00-10.3 10.3 10.08 10.08 0 0010.3 10.3 11.34 11.34 0 009.63-5.15zM383.3 44.57h-29.81c1.1 5.66 5 8.61 10.64 8.61 3.72 0 7.6-1.68 9-4.22l9.29 5.66c-3 5.49-10 8.7-18.58 8.7a21.53 21.53 0 01-21.79-21.79 21.16 21.16 0 0121.53-21.36 19.69 19.69 0 0120 19.76 30.47 30.47 0 01-.28 4.64zM371.73 37a8.55 8.55 0 00-8.7-7.18c-5 0-8.27 2.71-9.37 7.18zM386 58.08l3.55-8.27a23.83 23.83 0 0014 4.39c3.71 0 6.08-1.44 6.08-3.38-.09-6.33-22.38-1.6-22.55-16.89-.08-7.77 6.84-13.76 16.64-13.76 5.82 0 11.65 1.43 15.79 4.73l-3.38 8.61a23.21 23.21 0 00-12.92-4.31c-3 0-5.07 1.44-5.07 3.3.09 6 22.55 2.7 22.8 17.56 0 7.69-6.75 13.26-16.38 13.26-7.11 0-13.56-1.69-18.56-5.24zM438.89 8.09a7.27 7.27 0 11-14.53 0 7.27 7.27 0 0114.53 0zM437.62 21v41.47h-11.91V21zM485.68 20.93V60.7c0 11.65-9.29 18.83-21.19 18.83-7 0-15-2.45-19-6.59l5.66-8.27a20.86 20.86 0 0013 4.22c5 0 9.63-3.38 9.63-8.44v-4c-2 3.21-7 5.57-12.25 5.57-10.81 0-19.33-9.37-19.33-21s8.52-21 19.33-21c5.16 0 10.22 2.37 12.25 5.66v-4.75zM473.78 46v-9.8a11.38 11.38 0 00-9.63-5.15 10 10 0 100 20 11.5 11.5 0 009.63-5.05zM532.77 39v23.47h-11.9V41c0-5.75-3.13-9-8-9a9.82 9.82 0 00-8.27 4.73v25.74h-11.94V21h11.91v4.9a13.45 13.45 0 0111.31-5.74c10.47.01 16.89 7.19 16.89 18.84z"/>
              </svg>