<svg viewBox="0 0 56 56" fill="none" xmlns="http://www.w3.org/2000/svg">
  <path d="M48 0H8C3.58172 0 0 3.58172 0 8V48C0 52.4183 3.58172 56 8 56H48C52.4183 56 56 52.4183 56 48V8C56 3.58172 52.4183 0 48 0Z" fill="#FBAE4B"/>
  <mask id="mask0_279_2463" style="mask-type:alpha" maskUnits="userSpaceOnUse" x="0" y="0" width="56" height="56">
    <path d="M48 0H8C3.58172 0 0 3.58172 0 8V48C0 52.4183 3.58172 56 8 56H48C52.4183 56 56 52.4183 56 48V8C56 3.58172 52.4183 0 48 0Z" fill="#FBAE4B"/>
  </mask>
  <g mask="url(#mask0_279_2463)">
    <path d="M43.7743 62.8183V31.7545C43.7743 23.4081 37.4263 16.5312 29.3004 15.6936C27.875 15.5467 26.4644 15.2822 25.0831 14.9148L21.6358 13.9714C20.789 13.7397 20.0854 14.6483 20.5216 15.4102C20.8974 16.0665 20.4236 16.8839 19.6673 16.8839H16.7783C15.8576 16.8839 15.5297 18.102 16.3261 18.5641C16.8719 18.8808 16.9321 19.6479 16.4755 20.0836C13.3985 23.0197 11.4762 27.1708 11.4762 31.7692V54.833C11.4762 59.2512 15.0579 62.833 19.4762 62.833H43.7596C43.7677 62.833 43.7743 62.8264 43.7743 62.8183Z" fill="#FFDE11" stroke="black" stroke-width="1.47751" stroke-miterlimit="10" stroke-linecap="round" stroke-linejoin="round"/>
    <path d="M20.0283 39.028C23.5017 39.028 26.3175 36.2123 26.3175 32.7389C26.3175 29.2655 23.5017 26.4497 20.0283 26.4497C16.5549 26.4497 13.7391 29.2655 13.7391 32.7389C13.7391 36.2123 16.5549 39.028 20.0283 39.028Z" fill="black" stroke="black" stroke-width="0.944565" stroke-miterlimit="10" stroke-linecap="round" stroke-linejoin="round"/>
    <path d="M17.5083 30.2189C18.4383 29.289 17.7534 28.0515 16.754 28.9064C16.5538 29.0777 16.3672 29.2644 16.1961 29.4646C15.3416 30.4643 16.5783 31.1489 17.5083 30.2189Z" fill="#FFDE11"/>
    <path d="M24.5541 33.2239C24.5541 33.2239 27.302 30.4761 31.4752 33.2239" stroke="black" stroke-width="2.11138" stroke-miterlimit="10" stroke-linecap="round" stroke-linejoin="round"/>
    <path d="M35.325 39.028C38.7985 39.028 41.6142 36.2123 41.6142 32.7389C41.6142 29.2655 38.7985 26.4497 35.325 26.4497C31.8516 26.4497 29.0359 29.2655 29.0359 32.7389C29.0359 36.2123 31.8516 39.028 35.325 39.028Z" fill="black" stroke="black" stroke-width="0.944565" stroke-miterlimit="10" stroke-linecap="round" stroke-linejoin="round"/>
    <path d="M32.805 30.2189C33.735 29.289 33.0501 28.0515 32.0508 28.9064C31.8505 29.0777 31.664 29.2644 31.4928 29.4646C30.6383 30.4643 31.8751 31.1489 32.805 30.2189Z" fill="#FFDE11"/>
    <path d="M13.7392 32.739H11.5203" stroke="black" stroke-width="2.11138" stroke-miterlimit="10" stroke-linecap="round" stroke-linejoin="round"/>
    <path d="M41.5555 32.739H43.7743" stroke="black" stroke-width="2.11138" stroke-miterlimit="10" stroke-linecap="round" stroke-linejoin="round"/>
    <path d="M32.2393 36.295L32.1512 36.0452C31.4606 34.1497 29.6532 32.9006 27.64 32.9006C25.6269 32.9006 23.8195 34.1643 23.1289 36.0452L23.0407 36.295C22.6293 37.4118 21.5566 38.1612 20.3664 38.1612H16.1491C12.7694 38.1612 10.0363 40.8943 10.0363 44.274C10.0363 47.6537 12.7694 50.3869 16.1491 50.3869H39.1604C42.5401 50.3869 45.2732 47.6537 45.2732 44.274C45.2732 40.8943 42.5401 38.1612 39.1604 38.1612H34.9431C33.7235 38.1612 32.6508 37.4118 32.2393 36.295Z" fill="#F15B27" stroke="black" stroke-width="1.58731" stroke-miterlimit="10" stroke-linecap="round" stroke-linejoin="round"/>
    <path d="M15.811 44.4355H39.9097" stroke="black" stroke-width="1.47751" stroke-miterlimit="10" stroke-linecap="round" stroke-linejoin="round"/>
    <path d="M26.2146 37.882C26.5311 37.882 26.7877 37.6254 26.7877 37.3089C26.7877 36.9924 26.5311 36.7358 26.2146 36.7358C25.8981 36.7358 25.6415 36.9924 25.6415 37.3089C25.6415 37.6254 25.8981 37.882 26.2146 37.882Z" fill="black"/>
    <path d="M29.0507 37.882C29.3672 37.882 29.6238 37.6254 29.6238 37.3089C29.6238 36.9924 29.3672 36.7358 29.0507 36.7358C28.7342 36.7358 28.4776 36.9924 28.4776 37.3089C28.4776 37.6254 28.7342 37.882 29.0507 37.882Z" fill="black"/>
  </g>
</svg>