<svg viewBox="0 0 56 56" fill="none" xmlns="http://www.w3.org/2000/svg">
  <path d="M48 0H8C3.58172 0 0 3.58172 0 8V48C0 52.4183 3.58172 56 8 56H48C52.4183 56 56 52.4183 56 48V8C56 3.58172 52.4183 0 48 0Z" fill="#F1606A"/>
  <mask id="mask0_279_2440" style="mask-type:alpha" maskUnits="userSpaceOnUse" x="0" y="0" width="56" height="56">
    <path d="M48 0H8C3.58172 0 0 3.58172 0 8V48C0 52.4183 3.58172 56 8 56H48C52.4183 56 56 52.4183 56 48V8C56 3.58172 52.4183 0 48 0Z" fill="#F1606A"/>
  </mask>
  <g mask="url(#mask0_279_2440)">
    <path d="M43.1866 63.112V33.5177C43.1866 25.1713 36.8386 18.2944 28.7127 17.4568C27.2873 17.3099 25.8767 17.0454 24.4954 16.678L21.0481 15.7346C20.2013 15.5029 19.4977 16.4115 19.9339 17.1734C20.3097 17.8297 19.8359 18.647 19.0796 18.647H16.1906C15.2699 18.647 14.942 19.8652 15.7384 20.3273C16.2842 20.644 16.3444 21.4111 15.8878 21.8467C12.8108 24.7828 10.8885 28.9339 10.8885 33.5324V55.1267C10.8885 59.545 14.4702 63.1267 18.8885 63.1267H43.1719C43.18 63.1267 43.1866 63.1201 43.1866 63.112Z" fill="#FFDE11" stroke="black" stroke-width="1.47751" stroke-miterlimit="10" stroke-linecap="round" stroke-linejoin="round"/>
    <path d="M23.7167 36.7064C27.2793 36.7064 30.1675 33.8183 30.1675 30.2556C30.1675 26.6929 27.2793 23.8048 23.7167 23.8048C20.154 23.8048 17.2659 26.6929 17.2659 30.2556C17.2659 33.8183 20.154 36.7064 23.7167 36.7064Z" fill="black" stroke="black" stroke-width="0.967003" stroke-miterlimit="10" stroke-linecap="round" stroke-linejoin="round"/>
    <path d="M21.1377 27.662C22.0894 26.7103 21.3886 25.4439 20.3656 26.3184C20.1606 26.4937 19.9695 26.6848 19.7942 26.8898C18.9196 27.9128 20.1861 28.6136 21.1377 27.662Z" fill="#FFDE11"/>
    <path d="M28.36 30.7551C28.36 30.7551 31.1814 27.9338 35.4427 30.7551" stroke="black" stroke-width="2.16155" stroke-miterlimit="10" stroke-linecap="round" stroke-linejoin="round"/>
    <path d="M39.3808 36.7064C42.9435 36.7064 45.8316 33.8183 45.8316 30.2556C45.8316 26.6929 42.9435 23.8048 39.3808 23.8048C35.8181 23.8048 32.93 26.6929 32.93 30.2556C32.93 33.8183 35.8181 36.7064 39.3808 36.7064Z" fill="black" stroke="black" stroke-width="0.967003" stroke-miterlimit="10" stroke-linecap="round" stroke-linejoin="round"/>
    <path d="M36.8019 27.662C37.7536 26.7103 37.0527 25.4439 36.0298 26.3184C35.8248 26.4937 35.6337 26.6848 35.4584 26.8898C34.5838 27.9128 35.8503 28.6136 36.8019 27.662Z" fill="#FFDE11"/>
    <path d="M45.1116 40.4387C47.1394 40.4387 48.7705 38.7488 48.6823 36.6916C48.5941 34.7667 46.9337 33.2972 45.0087 33.2972H27.0082C23.0701 33.2972 19.8668 36.5006 19.8668 40.4387C19.8668 44.3767 23.0701 47.5801 27.0082 47.5801H45.0087C46.9337 47.5801 48.5794 46.096 48.6823 44.1857C48.7705 42.1432 47.1394 40.4387 45.1116 40.4387Z" fill="#F15B27" stroke="black" stroke-width="1.47751" stroke-miterlimit="10" stroke-linecap="round" stroke-linejoin="round"/>
    <path d="M45.1116 40.4387H25.7886" stroke="black" stroke-width="1.47751" stroke-miterlimit="10" stroke-linecap="round" stroke-linejoin="round"/>
    <path d="M17.2805 30.2556H15.0029" stroke="black" stroke-width="2.16155" stroke-miterlimit="10" stroke-linecap="round" stroke-linejoin="round"/>
  </g>
</svg>